<svg width="28" height="25" viewBox="0 0 28 25" fill="none" xmlns="http://www.w3.org/2000/svg">
<path d="M3.33317 3.33366H7.33317L9.99984 0.666992H17.9998L20.6665 3.33366H24.6665C25.3737 3.33366 26.052 3.61461 26.5521 4.11471C27.0522 4.6148 27.3332 5.29308 27.3332 6.00033V22.0003C27.3332 22.7076 27.0522 23.3858 26.5521 23.8859C26.052 24.386 25.3737 24.667 24.6665 24.667H3.33317C2.62593 24.667 1.94765 24.386 1.44755 23.8859C0.947455 23.3858 0.666504 22.7076 0.666504 22.0003V6.00033C0.666504 5.29308 0.947455 4.6148 1.44755 4.11471C1.94765 3.61461 2.62593 3.33366 3.33317 3.33366ZM13.9998 7.33366C12.2317 7.33366 10.536 8.03604 9.28579 9.28628C8.03555 10.5365 7.33317 12.2322 7.33317 14.0003C7.33317 15.7684 8.03555 17.4641 9.28579 18.7144C10.536 19.9646 12.2317 20.667 13.9998 20.667C15.7679 20.667 17.4636 19.9646 18.7139 18.7144C19.9641 17.4641 20.6665 15.7684 20.6665 14.0003C20.6665 12.2322 19.9641 10.5365 18.7139 9.28628C17.4636 8.03604 15.7679 7.33366 13.9998 7.33366ZM13.9998 10.0003C15.0607 10.0003 16.0781 10.4218 16.8283 11.1719C17.5784 11.922 17.9998 12.9395 17.9998 14.0003C17.9998 15.0612 17.5784 16.0786 16.8283 16.8288C16.0781 17.5789 15.0607 18.0003 13.9998 18.0003C12.939 18.0003 11.9216 17.5789 11.1714 16.8288C10.4213 16.0786 9.99984 15.0612 9.99984 14.0003C9.99984 12.9395 10.4213 11.922 11.1714 11.1719C11.9216 10.4218 12.939 10.0003 13.9998 10.0003Z" fill="white"/>
</svg>
