<svg width="32" height="32" viewBox="0 0 32 32" fill="none" xmlns="http://www.w3.org/2000/svg">
<rect width="32" height="32" rx="16" fill="#00674B"/>
<path d="M8.44046 8.02519C8.51803 8.00228 8.59936 7.9949 8.67979 8.00345C8.76022 8.01201 8.83817 8.03634 8.90919 8.07505C8.98021 8.11376 9.0429 8.1661 9.09367 8.22906C9.14445 8.29202 9.18231 8.36438 9.2051 8.44199L9.65634 9.96973H21.6798C23.1894 9.96973 24.3421 11.3785 23.9072 12.8496L22.5494 17.4443C22.2606 18.424 21.3426 19.0771 20.3219 19.0771H12.8101C11.7895 19.0771 10.8722 18.424 10.5826 17.4443L8.02532 8.7907C7.979 8.63424 7.99671 8.46579 8.07456 8.32239C8.15241 8.17899 8.28402 8.07156 8.44046 8.02519ZM11.2816 22.1539C11.2816 21.6643 11.4761 21.1947 11.8223 20.8485C12.1685 20.5023 12.638 20.3078 13.1276 20.3078C13.6172 20.3078 14.0867 20.5023 14.4329 20.8485C14.7791 21.1947 14.9736 21.6643 14.9736 22.1539C14.9736 22.6435 14.7791 23.1131 14.4329 23.4593C14.0867 23.8055 13.6172 24 13.1276 24C12.638 24 12.1685 23.8055 11.8223 23.4593C11.4761 23.1131 11.2816 22.6435 11.2816 22.1539ZM17.8451 22.1539C17.8451 21.9115 17.8928 21.6714 17.9856 21.4474C18.0783 21.2235 18.2143 21.02 18.3857 20.8485C18.5571 20.6771 18.7606 20.5411 18.9846 20.4483C19.2086 20.3556 19.4486 20.3078 19.691 20.3078C19.9335 20.3078 20.1735 20.3556 20.3975 20.4483C20.6214 20.5411 20.8249 20.6771 20.9963 20.8485C21.1677 21.02 21.3037 21.2235 21.3965 21.4474C21.4893 21.6714 21.537 21.9115 21.537 22.1539C21.537 22.6435 21.3425 23.1131 20.9963 23.4593C20.6501 23.8055 20.1806 24 19.691 24C19.2015 24 18.7319 23.8055 18.3857 23.4593C18.0395 23.1131 17.8451 22.6435 17.8451 22.1539Z" fill="white"/>
</svg>
