<svg width="24" height="25" viewBox="0 0 24 25" fill="none" xmlns="http://www.w3.org/2000/svg">
<path d="M14 9.5C13.7167 9.5 13.4793 9.404 13.288 9.212C13.0967 9.02 13.0007 8.78267 13 8.5V4.5C13 4.21667 13.096 3.97933 13.288 3.788C13.48 3.59667 13.7173 3.50067 14 3.5H20C20.2833 3.5 20.521 3.596 20.713 3.788C20.905 3.98 21.0007 4.21733 21 4.5V8.5C21 8.78333 20.904 9.021 20.712 9.213C20.52 9.405 20.2827 9.50067 20 9.5H14ZM4 13.5C3.71667 13.5 3.47933 13.404 3.288 13.212C3.09667 13.02 3.00067 12.7827 3 12.5V4.5C3 4.21667 3.096 3.97933 3.288 3.788C3.48 3.59667 3.71733 3.50067 4 3.5H10C10.2833 3.5 10.521 3.596 10.713 3.788C10.905 3.98 11.0007 4.21733 11 4.5V12.5C11 12.7833 10.904 13.021 10.712 13.213C10.52 13.405 10.2827 13.5007 10 13.5H4ZM14 21.5C13.7167 21.5 13.4793 21.404 13.288 21.212C13.0967 21.02 13.0007 20.7827 13 20.5V12.5C13 12.2167 13.096 11.9793 13.288 11.788C13.48 11.5967 13.7173 11.5007 14 11.5H20C20.2833 11.5 20.521 11.596 20.713 11.788C20.905 11.98 21.0007 12.2173 21 12.5V20.5C21 20.7833 20.904 21.021 20.712 21.213C20.52 21.405 20.2827 21.5007 20 21.5H14ZM4 21.5C3.71667 21.5 3.47933 21.404 3.288 21.212C3.09667 21.02 3.00067 20.7827 3 20.5V16.5C3 16.2167 3.096 15.9793 3.288 15.788C3.48 15.5967 3.71733 15.5007 4 15.5H10C10.2833 15.5 10.521 15.596 10.713 15.788C10.905 15.98 11.0007 16.2173 11 16.5V20.5C11 20.7833 10.904 21.021 10.712 21.213C10.52 21.405 10.2827 21.5007 10 21.5H4Z" fill="#535353" fill-opacity="0.32"/>
</svg>
