<svg width="24" height="24" viewBox="0 0 24 24" fill="none" xmlns="http://www.w3.org/2000/svg">
<g clip-path="url(#clip0_1877_1094)">
<path d="M18.375 0H5.625C2.5184 0 0 2.5184 0 5.625V18.375C0 21.4816 2.5184 24 5.625 24H18.375C21.4816 24 24 21.4816 24 18.375V5.625C24 2.5184 21.4816 0 18.375 0Z" fill="#F4F2ED"/>
<path d="M3.90338 19.035H6.88631V11.7907L2.625 8.59473V17.7566C2.625 18.464 3.19819 19.035 3.90338 19.035Z" fill="#4285F4"/>
<path d="M17.1138 19.0351H20.0968C20.8041 19.0351 21.3752 18.4619 21.3752 17.7567V8.59473L17.1138 11.7908" fill="#34A853"/>
<path d="M17.1138 6.25085V11.7906L21.3752 8.5947V6.88995C21.3752 5.30904 19.5705 4.40773 18.307 5.35592" fill="#FBBC04"/>
<path d="M6.88623 11.7909V6.25116L11.9998 10.0862L17.1134 6.25098V11.7908L11.9998 15.6261" fill="#EA4335"/>
<path d="M2.625 6.88995V8.59451L6.88631 11.7905V6.25085L5.69316 5.35592C4.42753 4.40773 2.625 5.30904 2.625 6.88995Z" fill="#C5221F"/>
</g>
<defs>
<clipPath id="clip0_1877_1094">
<rect width="24" height="24" fill="white"/>
</clipPath>
</defs>
</svg>
