<svg width="64" height="64" viewBox="0 0 64 64" fill="none" xmlns="http://www.w3.org/2000/svg">
<g clip-path="url(#clip0_263_2570)">
<rect width="64" height="64" rx="32" fill="#E6FFF8"/>
<path d="M-4 43H66C60.8889 53.3152 46.9333 73.7523 32 72.9786C17.0667 72.205 1.77778 52.6705 -4 43Z" fill="#B3FFEA"/>
<ellipse cx="32" cy="52" rx="20" ry="1" fill="#48FDCA"/>
<path d="M4.40385 32.8126C4.86875 32.6767 5.23595 33.2151 4.93971 33.5983L3.70475 35.1958C3.57226 35.3672 3.5652 35.6044 3.68725 35.7834L4.82496 37.4515C5.09787 37.8517 4.69928 38.3673 4.24329 38.204L2.34232 37.5231C2.1384 37.4501 1.91063 37.5167 1.77815 37.688L0.543182 39.2856C0.246943 39.6688 -0.366596 39.449 -0.352178 38.9649L-0.292071 36.9466C-0.285623 36.73 -0.419326 36.534 -0.623253 36.461L-2.52422 35.7801C-2.98021 35.6168 -2.96081 34.9654 -2.49591 34.8295L-0.557795 34.2629C-0.349882 34.2022 -0.204749 34.0144 -0.198301 33.7979L-0.138193 31.7796C-0.123775 31.2954 0.501753 31.1126 0.774663 31.5127L1.91237 33.1809C2.03442 33.3599 2.25782 33.4399 2.46574 33.3791L4.40385 32.8126Z" fill="#FE3478"/>
<path d="M2.91751 33.8263C3.38242 33.6904 3.74962 34.2288 3.45338 34.612L3.01785 35.1754C2.88537 35.3468 2.8783 35.5839 3.00035 35.7629L3.40158 36.3512C3.67449 36.7514 3.2759 37.267 2.81991 37.1037L2.14951 36.8635C1.94558 36.7905 1.71781 36.8571 1.58533 37.0285L1.1498 37.5918C0.853562 37.9751 0.240024 37.7553 0.254442 37.2712L0.27564 36.5594C0.282088 36.3428 0.148384 36.1468 -0.0555429 36.0738L-0.725946 35.8336C-1.18194 35.6703 -1.16254 35.0189 -0.697635 34.883L-0.0141311 34.6832C0.193781 34.6224 0.338915 34.4347 0.345363 34.2182L0.36656 33.5064C0.380978 33.0222 1.00651 32.8394 1.27942 33.2396L1.68065 33.8279C1.8027 34.0068 2.0261 34.0868 2.23401 34.0261L2.91751 33.8263Z" fill="#B60340"/>
<path d="M64.4819 33.8907C64.9468 33.7548 65.314 34.2932 65.0178 34.6764L63.7828 36.274C63.6504 36.4453 63.6433 36.6825 63.7653 36.8615L64.903 38.5297C65.176 38.9298 64.7774 39.4454 64.3214 39.2821L62.4204 38.6013C62.2165 38.5282 61.9887 38.5948 61.8562 38.7662L60.6213 40.3637C60.325 40.7469 59.7115 40.5272 59.7259 40.043L59.786 38.0247C59.7925 37.8082 59.6588 37.6121 59.4548 37.5391L57.5539 36.8582C57.0979 36.6949 57.1173 36.0435 57.5822 35.9076L59.5203 35.3411C59.7282 35.2803 59.8733 35.0925 59.8798 34.876L59.9399 32.8577C59.9543 32.3736 60.5798 32.1907 60.8527 32.5909L61.9905 34.259C62.1125 34.438 62.3359 34.518 62.5438 34.4572L64.4819 33.8907Z" fill="#B60340"/>
<path d="M62.9956 34.9044C63.4605 34.7685 63.8277 35.3069 63.5315 35.6901L63.0959 36.2535C62.9635 36.4249 62.9564 36.6621 63.0784 36.841L63.4797 37.4293C63.7526 37.8295 63.354 38.3451 62.898 38.1818L62.2276 37.9417C62.0237 37.8686 61.7959 37.9352 61.6634 38.1066L61.2279 38.67C60.9316 39.0532 60.3181 38.8334 60.3325 38.3493L60.3537 37.6375C60.3602 37.421 60.2265 37.2249 60.0225 37.1519L59.3521 36.9118C58.8961 36.7485 58.9155 36.097 59.3805 35.9611L60.064 35.7613C60.2719 35.7006 60.417 35.5128 60.4234 35.2963L60.4446 34.5845C60.4591 34.1004 61.0846 33.9175 61.3575 34.3177L61.7587 34.906C61.8808 35.085 62.1042 35.165 62.3121 35.1042L62.9956 34.9044Z" fill="#FE3478"/>
<path d="M44.3333 46.1666H27.6667C22.6667 46.1666 19.3333 43.6666 19.3333 37.8333V26.1666C19.3333 20.3333 22.6667 17.8333 27.6667 17.8333H44.3333C49.3333 17.8333 52.6667 20.3333 52.6667 26.1666V37.8333C52.6667 43.6666 49.3333 46.1666 44.3333 46.1666Z" fill="#026247" stroke="#026247" stroke-width="2.5" stroke-miterlimit="10" stroke-linecap="round" stroke-linejoin="round"/>
<path d="M44.3333 27L39.1167 31.1667C37.4 32.5333 34.5833 32.5333 32.8667 31.1667L27.6667 27" stroke="#026247" stroke-width="2.5" stroke-miterlimit="10" stroke-linecap="round" stroke-linejoin="round"/>
<path d="M41.8333 46.1666H25.1667C20.1667 46.1666 16.8333 43.6666 16.8333 37.8333V26.1666C16.8333 20.3333 20.1667 17.8333 25.1667 17.8333H41.8333C46.8333 17.8333 50.1667 20.3333 50.1667 26.1666V37.8333C50.1667 43.6666 46.8333 46.1666 41.8333 46.1666Z" fill="#01966D" stroke="#50FCCB" stroke-width="2.5" stroke-miterlimit="10" stroke-linecap="round" stroke-linejoin="round"/>
<path d="M41.8333 27L36.6167 31.1667C34.9 32.5333 32.0833 32.5333 30.3667 31.1667L25.1667 27" stroke="#50FCCB" stroke-width="2.5" stroke-miterlimit="10" stroke-linecap="round" stroke-linejoin="round"/>
<path d="M33.4625 44.9125C33.4625 45.3625 33.3625 45.825 33.15 46.275C32.9375 46.725 32.6625 47.15 32.3 47.55C31.6875 48.225 31.0125 48.7125 30.25 49.025C29.5 49.3375 28.6875 49.5 27.8125 49.5C26.5375 49.5 25.175 49.2 23.7375 48.5875C22.3 47.975 20.8625 47.15 19.4375 46.1125C18 45.0625 16.6375 43.9 15.3375 42.6125C14.05 41.3125 12.8875 39.95 11.85 38.525C10.825 37.1 10 35.675 9.4 34.2625C8.8 32.8375 8.5 31.475 8.5 30.175C8.5 29.325 8.65 28.5125 8.95 27.7625C9.25 27 9.725 26.3 10.3875 25.675C11.1875 24.8875 12.0625 24.5 12.9875 24.5C13.3375 24.5 13.6875 24.575 14 24.725C14.325 24.875 14.6125 25.1 14.8375 25.425L17.7375 29.5125C17.9625 29.825 18.125 30.1125 18.2375 30.3875C18.35 30.65 18.4125 30.9125 18.4125 31.15C18.4125 31.45 18.325 31.75 18.15 32.0375C17.9875 32.325 17.75 32.625 17.45 32.925L16.5 33.9125C16.3625 34.05 16.3 34.2125 16.3 34.4125C16.3 34.5125 16.3125 34.6 16.3375 34.7C16.375 34.8 16.4125 34.875 16.4375 34.95C16.6625 35.3625 17.05 35.9 17.6 36.55C18.1625 37.2 18.7625 37.8625 19.4125 38.525C20.0875 39.1875 20.7375 39.8 21.4 40.3625C22.05 40.9125 22.5875 41.2875 23.0125 41.5125C23.075 41.5375 23.15 41.575 23.2375 41.6125C23.3375 41.65 23.4375 41.6625 23.55 41.6625C23.7625 41.6625 23.925 41.5875 24.0625 41.45L25.0125 40.5125C25.325 40.2 25.625 39.9625 25.9125 39.8125C26.2 39.6375 26.4875 39.55 26.8 39.55C27.0375 39.55 27.2875 39.6 27.5625 39.7125C27.8375 39.825 28.125 39.9875 28.4375 40.2L32.575 43.1375C32.9 43.3625 33.125 43.625 33.2625 43.9375C33.3875 44.25 33.4625 44.5625 33.4625 44.9125Z" fill="#016B4E"/>
<g filter="url(#filter0_f_263_2570)">
<ellipse cx="47.6429" cy="21.3567" rx="8.14286" ry="8.14305" fill="#AB6701" fill-opacity="0.3"/>
</g>
<ellipse cx="49.3572" cy="19.6428" rx="8.14286" ry="8.14305" fill="#FED291"/>
<ellipse cx="49.5714" cy="19.5711" rx="5.57143" ry="5.57156" fill="#DE8705"/>
<path d="M47.0833 19.1658C46.625 19.1658 46.25 19.5408 46.25 19.9991C46.25 20.4574 46.625 20.8324 47.0833 20.8324C47.5417 20.8324 47.9167 20.4574 47.9167 19.9991C47.9167 19.5408 47.5417 19.1658 47.0833 19.1658Z" stroke="white" stroke-width="0.625"/>
<path d="M52.9165 19.1658C52.4581 19.1658 52.0831 19.5408 52.0831 19.9991C52.0831 20.4574 52.4581 20.8324 52.9165 20.8324C53.3748 20.8324 53.7498 20.4574 53.7498 19.9991C53.7498 19.5408 53.3748 19.1658 52.9165 19.1658Z" stroke="white" stroke-width="0.625"/>
<path d="M50.0002 19.1658C49.5419 19.1658 49.1669 19.5408 49.1669 19.9991C49.1669 20.4574 49.5419 20.8324 50.0002 20.8324C50.4585 20.8324 50.8335 20.4574 50.8335 19.9991C50.8335 19.5408 50.4585 19.1658 50.0002 19.1658Z" stroke="white" stroke-width="0.625"/>
</g>
<defs>
<filter id="filter0_f_263_2570" x="36.0714" y="9.78501" width="23.1429" height="23.1434" filterUnits="userSpaceOnUse" color-interpolation-filters="sRGB">
<feFlood flood-opacity="0" result="BackgroundImageFix"/>
<feBlend mode="normal" in="SourceGraphic" in2="BackgroundImageFix" result="shape"/>
<feGaussianBlur stdDeviation="1.71431" result="effect1_foregroundBlur_263_2570"/>
</filter>
<clipPath id="clip0_263_2570">
<rect width="64" height="64" rx="32" fill="white"/>
</clipPath>
</defs>
</svg>
