<svg width="32" height="32" viewBox="0 0 32 32" fill="none" xmlns="http://www.w3.org/2000/svg">
<g clip-path="url(#clip0_2408_3271)">
<rect width="32" height="32" rx="16" fill="#00674B"/>
<path d="M23.2379 19.5714H25.0474V21.381H6.95215V19.5714H8.76167V13.2381C8.76167 11.3184 9.52426 9.4774 10.8817 8.11999C12.2391 6.76258 14.0801 6 15.9998 6C17.9194 6 19.7605 6.76258 21.1179 8.11999C22.4753 9.4774 23.2379 11.3184 23.2379 13.2381V19.5714ZM21.4283 19.5714V13.2381C21.4283 11.7983 20.8564 10.4176 19.8383 9.39952C18.8203 8.38146 17.4395 7.80952 15.9998 7.80952C14.56 7.80952 13.1792 8.38146 12.1612 9.39952C11.1431 10.4176 10.5712 11.7983 10.5712 13.2381V19.5714H21.4283ZM13.2855 23.1905H18.7141V25H13.2855V23.1905Z" fill="white"/>
</g>
<defs>
<clipPath id="clip0_2408_3271">
<rect width="32" height="32" rx="16" fill="white"/>
</clipPath>
</defs>
</svg>
