<svg width="64" height="64" viewBox="0 0 64 64" fill="none" xmlns="http://www.w3.org/2000/svg">
<g clip-path="url(#clip0_263_2520)">
<rect width="64" height="64" rx="32" fill="#E6FFF8"/>
<path d="M-4 43H66C60.8889 53.3152 46.9333 73.7523 32 72.9786C17.0667 72.205 1.77778 52.6705 -4 43Z" fill="#B3FFEA"/>
<ellipse cx="32" cy="52" rx="20" ry="1" fill="#48FDCA"/>
<path d="M41.8687 38.5645C42.2447 40.5359 42.447 44.034 41.6628 46.1281C40.8786 48.2221 36.2648 50.5535 34.2328 51.9415L33.4968 44.9803L41.8687 38.5645Z" fill="#7AFCD8" stroke="#7AFCD8" stroke-width="0.525" stroke-linecap="round" stroke-linejoin="round"/>
<path d="M23.4903 24.7256C21.4849 24.6474 17.9957 24.9685 16.0418 26.0559C14.0879 27.1432 12.4698 32.0528 11.4 34.2689L18.3932 33.9597L23.4903 24.7256Z" fill="#7AFCD8" stroke="#7AFCD8" stroke-width="0.525" stroke-linecap="round" stroke-linejoin="round"/>
<path d="M19.1468 32.5156L32.3811 45.5156C33.0913 45.2717 33.8173 44.978 34.5504 44.6286L19.8978 30.3017C19.6008 31.0231 19.3492 31.7618 19.1468 32.5156Z" fill="#7AFCD8"/>
<path d="M34.5504 44.6286C41.4137 41.3583 48.9083 33.2172 50.0504 15.5142C37.9868 13.0194 24.1928 19.8685 19.8978 30.3017L34.5504 44.6286Z" fill="#7AFCD8"/>
<path d="M18.5504 37.0142L27.0504 46.5156C28.5898 46.4806 30.4259 46.1871 32.3811 45.5156L19.1468 32.5156C18.758 33.9635 18.5504 35.4675 18.5504 37.0142Z" fill="#7AFCD8"/>
<path d="M19.1468 32.5156C18.758 33.9635 18.5504 35.4675 18.5504 37.0142L27.0504 46.5156C28.5898 46.4806 30.4259 46.1871 32.3811 45.5156M19.1468 32.5156L32.3811 45.5156M19.1468 32.5156C19.3492 31.7618 19.6008 31.0231 19.8978 30.3017M32.3811 45.5156C33.0913 45.2717 33.8173 44.978 34.5504 44.6286M34.5504 44.6286C41.4137 41.3583 48.9083 33.2172 50.0504 15.5142C37.9868 13.0194 24.1928 19.8685 19.8978 30.3017M34.5504 44.6286L19.8978 30.3017" stroke="#7AFCD8" stroke-width="0.525" stroke-linecap="round" stroke-linejoin="round"/>
<circle cx="36.0504" cy="27.0156" r="5.5" fill="#7AFCD8"/>
<path fill-rule="evenodd" clip-rule="evenodd" d="M50.0104 15.4708C51.0275 15.7913 52.1611 15.7566 53.2124 15.2899C54.2637 14.8232 55.0499 14.0057 55.4944 13.0363C54.4773 12.7158 53.3436 12.7505 52.2923 13.2172C51.241 13.6839 50.4549 14.5014 50.0104 15.4708Z" fill="#7AFCD8"/>
<path d="M39.8687 38.5645C40.2447 40.5359 40.447 44.034 39.6628 46.1281C38.8786 48.2221 34.2648 50.5535 32.2328 51.9415L31.4968 44.9803L39.8687 38.5645Z" fill="#01DA9D" stroke="#DAFEF4" stroke-width="0.525" stroke-linecap="round" stroke-linejoin="round"/>
<path d="M21.4903 24.7256C19.4849 24.6474 15.9957 24.9685 14.0418 26.0559C12.0879 27.1432 10.4698 32.0528 9.40002 34.2689L16.3932 33.9597L21.4903 24.7256Z" fill="#01DA9D" stroke="#DAFEF4" stroke-width="0.525" stroke-linecap="round" stroke-linejoin="round"/>
<path d="M17.1468 32.5156L30.3811 45.5156C31.0913 45.2717 31.8173 44.978 32.5504 44.6286L17.8978 30.3017C17.6008 31.0231 17.3492 31.7618 17.1468 32.5156Z" fill="#DAFEF4"/>
<path d="M32.5504 44.6286C39.4137 41.3583 46.9083 33.2172 48.0504 15.5142C35.9868 13.0194 22.1928 19.8685 17.8978 30.3017L32.5504 44.6286Z" fill="#00674B"/>
<path d="M16.5504 37.0142L25.0504 46.5156C26.5898 46.4806 28.4259 46.1871 30.3811 45.5156L17.1468 32.5156C16.758 33.9635 16.5504 35.4675 16.5504 37.0142Z" fill="#00674B"/>
<path d="M17.1468 32.5156C16.758 33.9635 16.5504 35.4675 16.5504 37.0142L25.0504 46.5156C26.5898 46.4806 28.4259 46.1871 30.3811 45.5156M17.1468 32.5156L30.3811 45.5156M17.1468 32.5156C17.3492 31.7618 17.6008 31.0231 17.8978 30.3017M30.3811 45.5156C31.0913 45.2717 31.8173 44.978 32.5504 44.6286M32.5504 44.6286C39.4137 41.3583 46.9083 33.2172 48.0504 15.5142C35.9868 13.0194 22.1928 19.8685 17.8978 30.3017M32.5504 44.6286L17.8978 30.3017" stroke="#02AA7C" stroke-width="0.525" stroke-linecap="round" stroke-linejoin="round"/>
<circle cx="34.0504" cy="27.0156" r="5.5" fill="#DAFEF4"/>
<path fill-rule="evenodd" clip-rule="evenodd" d="M48.0104 15.4708C49.0275 15.7913 50.1611 15.7566 51.2124 15.2899C52.2637 14.8232 53.0499 14.0057 53.4944 13.0363C52.4773 12.7158 51.3436 12.7505 50.2923 13.2172C49.241 13.6839 48.4549 14.5014 48.0104 15.4708Z" fill="#DAFEF4"/>
<g filter="url(#filter0_f_263_2520)">
<ellipse cx="26.4185" cy="17.8445" rx="7.57181" ry="7.57202" fill="#AB6701" fill-opacity="0.3"/>
</g>
<ellipse cx="26.4185" cy="19.7045" rx="6.97383" ry="6.97407" fill="#07FCB9" fill-opacity="0.1"/>
<ellipse cx="26.1529" cy="16.2507" rx="7.57181" ry="7.57202" fill="#FED291"/>
<ellipse cx="26.1528" cy="16.2512" rx="5.18072" ry="5.18086" fill="#DE8705"/>
<path d="M29.3719 16.4592C29.2294 17.0003 28.5564 17.3827 27.2102 18.1476C25.9088 18.8869 25.2581 19.2566 24.7338 19.108C24.517 19.0465 24.3194 18.9299 24.1601 18.7691C23.7748 18.3804 23.7748 17.6263 23.7748 16.1183C23.7748 14.6102 23.7748 13.8562 24.1601 13.4674C24.3194 13.3067 24.517 13.19 24.7338 13.1286C25.2581 12.98 25.9088 13.3497 27.2102 14.089C28.5564 14.8538 29.2294 15.2362 29.3719 15.7774C29.4306 16.0008 29.4306 16.2358 29.3719 16.4592Z" fill="white"/>
<path d="M4.40385 32.8126C4.86875 32.6767 5.23595 33.2151 4.93971 33.5983L3.70475 35.1958C3.57226 35.3672 3.5652 35.6044 3.68725 35.7834L4.82496 37.4515C5.09787 37.8517 4.69928 38.3673 4.24329 38.204L2.34232 37.5231C2.1384 37.4501 1.91063 37.5167 1.77815 37.688L0.543182 39.2856C0.246943 39.6688 -0.366596 39.449 -0.352178 38.9649L-0.292071 36.9466C-0.285623 36.73 -0.419326 36.534 -0.623253 36.461L-2.52422 35.7801C-2.98021 35.6168 -2.96081 34.9654 -2.49591 34.8295L-0.557795 34.2629C-0.349882 34.2022 -0.204749 34.0144 -0.198301 33.7979L-0.138193 31.7796C-0.123775 31.2954 0.501753 31.1126 0.774663 31.5127L1.91237 33.1809C2.03442 33.3599 2.25782 33.4399 2.46574 33.3791L4.40385 32.8126Z" fill="#FE3478"/>
<path d="M2.91751 33.8263C3.38242 33.6904 3.74962 34.2288 3.45338 34.612L3.01785 35.1754C2.88537 35.3468 2.8783 35.5839 3.00035 35.7629L3.40158 36.3512C3.67449 36.7514 3.2759 37.267 2.81991 37.1037L2.14951 36.8635C1.94558 36.7905 1.71781 36.8571 1.58533 37.0285L1.1498 37.5918C0.853562 37.9751 0.240024 37.7553 0.254442 37.2712L0.27564 36.5594C0.282088 36.3428 0.148384 36.1468 -0.0555429 36.0738L-0.725946 35.8336C-1.18194 35.6703 -1.16254 35.0189 -0.697635 34.883L-0.0141311 34.6832C0.193781 34.6224 0.338915 34.4347 0.345363 34.2182L0.36656 33.5064C0.380978 33.0222 1.00651 32.8394 1.27942 33.2396L1.68065 33.8279C1.8027 34.0068 2.0261 34.0868 2.23401 34.0261L2.91751 33.8263Z" fill="#B60340"/>
<path d="M64.4819 33.8907C64.9468 33.7548 65.314 34.2932 65.0178 34.6764L63.7828 36.274C63.6503 36.4453 63.6433 36.6825 63.7653 36.8615L64.903 38.5297C65.1759 38.9298 64.7773 39.4454 64.3214 39.2821L62.4204 38.6013C62.2165 38.5282 61.9887 38.5948 61.8562 38.7662L60.6212 40.3637C60.325 40.7469 59.7115 40.5272 59.7259 40.043L59.786 38.0247C59.7924 37.8082 59.6587 37.6121 59.4548 37.5391L57.5538 36.8582C57.0979 36.6949 57.1173 36.0435 57.5822 35.9076L59.5203 35.3411C59.7282 35.2803 59.8733 35.0925 59.8798 34.876L59.9399 32.8577C59.9543 32.3736 60.5798 32.1907 60.8527 32.5909L61.9904 34.259C62.1125 34.438 62.3359 34.518 62.5438 34.4572L64.4819 33.8907Z" fill="#B60340"/>
<path d="M62.9956 34.9044C63.4605 34.7685 63.8277 35.3069 63.5314 35.6901L63.0959 36.2535C62.9634 36.4249 62.9564 36.6621 63.0784 36.841L63.4796 37.4293C63.7526 37.8295 63.354 38.3451 62.898 38.1818L62.2276 37.9417C62.0236 37.8686 61.7959 37.9352 61.6634 38.1066L61.2279 38.67C60.9316 39.0532 60.3181 38.8334 60.3325 38.3493L60.3537 37.6375C60.3602 37.421 60.2264 37.2249 60.0225 37.1519L59.3521 36.9118C58.8961 36.7485 58.9155 36.097 59.3804 35.9611L60.0639 35.7613C60.2718 35.7006 60.417 35.5128 60.4234 35.2963L60.4446 34.5845C60.459 34.1004 61.0846 33.9175 61.3575 34.3177L61.7587 34.906C61.8808 35.085 62.1042 35.165 62.3121 35.1042L62.9956 34.9044Z" fill="#FE3478"/>
</g>
<defs>
<filter id="filter0_f_263_2520" x="15.6585" y="7.08428" width="21.52" height="21.5204" filterUnits="userSpaceOnUse" color-interpolation-filters="sRGB">
<feFlood flood-opacity="0" result="BackgroundImageFix"/>
<feBlend mode="normal" in="SourceGraphic" in2="BackgroundImageFix" result="shape"/>
<feGaussianBlur stdDeviation="1.59409" result="effect1_foregroundBlur_263_2520"/>
</filter>
<clipPath id="clip0_263_2520">
<rect width="64" height="64" rx="32" fill="white"/>
</clipPath>
</defs>
</svg>
