<svg width="64" height="64" viewBox="0 0 64 64" fill="none" xmlns="http://www.w3.org/2000/svg">
<g clip-path="url(#clip0_263_2610)">
<rect width="64" height="64" rx="32" fill="#E6FFF8"/>
<path d="M-4 43H66C60.8889 53.3152 46.9333 73.7523 32 72.9786C17.0667 72.205 1.77778 52.6705 -4 43Z" fill="#B3FFEA"/>
<ellipse cx="32" cy="52" rx="20" ry="1" fill="#48FDCA"/>
<path d="M11 21.2228C11.001 23.7228 11.0039 42.7228 11 45.2228C10.9961 47.7228 12.4961 48.7229 14.5 48.7229C16.5039 48.7228 45.0039 49.2228 47.5 48.7229C49.9961 48.2229 49.9961 46.7228 50 45.2228C50.0039 43.7228 50 23.7228 50 21.2228C50 18.7228 48.9961 17.7242 47.5 17.2228C46.0039 16.7215 15.5015 17.2228 14.5 17.2228C13.4985 17.2228 10.999 18.7228 11 21.2228Z" fill="#004C38" stroke="#00674B" stroke-width="1.21904"/>
<path d="M12.5 22C12.5 20.067 14.067 18.5 16 18.5H45C46.933 18.5 48.5 20.067 48.5 22V27.5H12.5V22Z" fill="#00674B" stroke="#004C38"/>
<circle cx="31" cy="37" r="7" fill="#004C38"/>
<path d="M32.5947 33L33.0543 33.4472C33.2597 33.647 33.3623 33.7469 33.3262 33.8318C33.2901 33.9167 33.1449 33.9167 32.8545 33.9167H29.2974C27.4763 33.9167 26 35.3531 26 37.125C26 37.8066 26.2185 38.4387 26.591 38.9583" stroke="#004C38" stroke-linecap="round" stroke-linejoin="round"/>
<path d="M28.5721 41.2503L28.1125 40.8031C27.9072 40.6033 27.8045 40.5034 27.8406 40.4185C27.8768 40.3337 28.022 40.3337 28.3124 40.3337H31.8695C33.6905 40.3337 35.1668 38.8972 35.1668 37.1253C35.1668 36.4437 34.9483 35.8117 34.5758 35.292" stroke="#004C38" stroke-linecap="round" stroke-linejoin="round"/>
<path d="M13 20.2228C13.001 22.7228 13.0039 41.7228 13 44.2228C12.9961 46.7228 14.4961 47.7229 16.5 47.7229C18.5039 47.7228 47.0039 48.2228 49.5 47.7229C51.9961 47.2229 51.9961 45.7228 52 44.2228C52.0039 42.7228 52 22.7228 52 20.2228C52 17.7228 50.9961 16.7242 49.5 16.2228C48.0039 15.7215 17.5015 16.2228 16.5 16.2228C15.4985 16.2228 12.999 17.7228 13 20.2228Z" fill="#50FCCB" stroke="#00674B" stroke-width="1.21904"/>
<path d="M14.5 21C14.5 19.067 16.067 17.5 18 17.5H47C48.933 17.5 50.5 19.067 50.5 21V26.5H14.5V21Z" fill="#00674B" stroke="#50FCCB"/>
<circle cx="33" cy="36" r="7" fill="#C8FEEE"/>
<path d="M34.5947 32L35.0543 32.4472C35.2597 32.647 35.3623 32.7469 35.3262 32.8318C35.2901 32.9167 35.1449 32.9167 34.8545 32.9167H31.2974C29.4763 32.9167 28 34.3531 28 36.125C28 36.8066 28.2185 37.4387 28.591 37.9583" stroke="#00674B" stroke-linecap="round" stroke-linejoin="round"/>
<path d="M30.5721 40.2503L30.1125 39.8031C29.9072 39.6033 29.8045 39.5034 29.8406 39.4185C29.8768 39.3337 30.022 39.3337 30.3124 39.3337H33.8695C35.6905 39.3337 37.1668 37.8972 37.1668 36.1253C37.1668 35.4437 36.9483 34.8117 36.5758 34.292" stroke="#00674B" stroke-linecap="round" stroke-linejoin="round"/>
<g filter="url(#filter0_f_263_2610)">
<ellipse cx="47.6429" cy="21.3567" rx="8.14286" ry="8.14305" fill="#AB6701" fill-opacity="0.3"/>
</g>
<ellipse cx="49.3572" cy="19.6428" rx="8.14286" ry="8.14305" fill="#FED291"/>
<ellipse cx="49.3573" cy="19.6424" rx="5.57143" ry="5.57156" fill="#DE8705"/>
<path d="M49.5021 16.4587V17.327M49.5021 17.327C48.6229 17.327 47.9102 17.8646 47.9102 18.5277C47.9102 19.1907 48.3444 19.5568 49.5021 19.5568C50.6599 19.5568 51.2388 19.8998 51.2388 20.7574C51.2388 21.615 50.4613 21.9579 49.5021 21.9579M49.5021 17.327C50.3813 17.327 51.094 17.8646 51.094 18.5277M49.5021 21.9579V22.8262M49.5021 21.9579C48.543 21.9579 47.7655 21.4205 47.7655 20.7574" stroke="#FFFBF5" stroke-width="0.651229" stroke-linejoin="round"/>
<path d="M29.5454 31.7727C29.5454 30.5069 29.0425 29.293 28.1475 28.3979C27.2524 27.5028 26.0385 27 24.7727 27C23.5069 27 22.2929 27.5028 21.3979 28.3979C20.5028 29.293 20 30.5069 20 31.7727L29.5454 31.7727Z" fill="#50FCCB" fill-opacity="0.5"/>
<path d="M37 21C37 22.2658 36.7839 22.3746 36.7839 22.3746C36.6364 23 35.0385 23.7725 33.7727 23.7725C32.5069 23.7725 31.2929 23.2696 30.3979 22.3746C29.5028 21.4795 29.5 21.5 29.5 21H33.7727H37Z" fill="#50FCCB" fill-opacity="0.5"/>
<path d="M21.5454 29.7727C21.5454 28.5069 21.0425 27.293 20.1475 26.3979C19.2524 25.5028 18.0385 25 16.7727 25C15.5069 25 14.2929 25.5028 13.3979 26.3979C12.5028 27.293 12 28.5069 12 29.7727L21.5454 29.7727Z" fill="#50FCCB" fill-opacity="0.5"/>
<path d="M29.5454 19.9997C29.5454 21.2655 29.0425 22.4795 28.1475 23.3746C27.2524 24.2696 26.0385 24.7725 24.7727 24.7725C23.5069 24.7725 22.2929 24.2696 21.3979 23.3746C20.5028 22.4795 20 21.2655 20 19.9997L29.5454 19.9997Z" fill="#50FCCB" fill-opacity="0.5"/>
<path d="M4.40385 32.8126C4.86875 32.6767 5.23595 33.2151 4.93971 33.5983L3.70475 35.1958C3.57226 35.3672 3.5652 35.6044 3.68725 35.7834L4.82496 37.4515C5.09787 37.8517 4.69928 38.3673 4.24329 38.204L2.34232 37.5231C2.1384 37.4501 1.91063 37.5167 1.77815 37.688L0.543182 39.2856C0.246943 39.6688 -0.366596 39.449 -0.352178 38.9649L-0.292071 36.9466C-0.285623 36.73 -0.419326 36.534 -0.623253 36.461L-2.52422 35.7801C-2.98021 35.6168 -2.96081 34.9654 -2.49591 34.8295L-0.557795 34.2629C-0.349882 34.2022 -0.204749 34.0144 -0.198301 33.7979L-0.138193 31.7796C-0.123775 31.2954 0.501753 31.1126 0.774663 31.5127L1.91237 33.1809C2.03442 33.3599 2.25782 33.4399 2.46574 33.3791L4.40385 32.8126Z" fill="#FE3478"/>
<path d="M2.91751 33.8263C3.38242 33.6904 3.74962 34.2288 3.45338 34.612L3.01785 35.1754C2.88537 35.3468 2.8783 35.5839 3.00035 35.7629L3.40158 36.3512C3.67449 36.7514 3.2759 37.267 2.81991 37.1037L2.14951 36.8635C1.94558 36.7905 1.71781 36.8571 1.58533 37.0285L1.1498 37.5918C0.853562 37.9751 0.240024 37.7553 0.254442 37.2712L0.27564 36.5594C0.282088 36.3428 0.148384 36.1468 -0.0555429 36.0738L-0.725946 35.8336C-1.18194 35.6703 -1.16254 35.0189 -0.697635 34.883L-0.0141311 34.6832C0.193781 34.6224 0.338915 34.4347 0.345363 34.2182L0.36656 33.5064C0.380978 33.0222 1.00651 32.8394 1.27942 33.2396L1.68065 33.8279C1.8027 34.0068 2.0261 34.0868 2.23401 34.0261L2.91751 33.8263Z" fill="#B60340"/>
<path d="M64.4819 33.8907C64.9468 33.7548 65.314 34.2932 65.0178 34.6764L63.7828 36.274C63.6504 36.4453 63.6433 36.6825 63.7653 36.8615L64.9031 38.5297C65.176 38.9298 64.7774 39.4454 64.3214 39.2821L62.4204 38.6013C62.2165 38.5282 61.9887 38.5948 61.8562 38.7662L60.6213 40.3637C60.325 40.7469 59.7115 40.5272 59.7259 40.043L59.786 38.0247C59.7925 37.8082 59.6588 37.6121 59.4548 37.5391L57.5539 36.8582C57.0979 36.6949 57.1173 36.0435 57.5822 35.9076L59.5203 35.3411C59.7282 35.2803 59.8733 35.0925 59.8798 34.876L59.9399 32.8577C59.9543 32.3736 60.5798 32.1907 60.8528 32.5909L61.9905 34.259C62.1125 34.438 62.3359 34.518 62.5438 34.4572L64.4819 33.8907Z" fill="#B60340"/>
<path d="M62.9956 34.9044C63.4605 34.7685 63.8277 35.3069 63.5315 35.6901L63.0959 36.2535C62.9635 36.4249 62.9564 36.6621 63.0784 36.841L63.4797 37.4293C63.7526 37.8295 63.354 38.3451 62.898 38.1818L62.2276 37.9417C62.0237 37.8686 61.7959 37.9352 61.6634 38.1066L61.2279 38.67C60.9317 39.0532 60.3181 38.8334 60.3325 38.3493L60.3537 37.6375C60.3602 37.421 60.2265 37.2249 60.0226 37.1519L59.3521 36.9118C58.8962 36.7485 58.9156 36.097 59.3805 35.9611L60.064 35.7613C60.2719 35.7006 60.417 35.5128 60.4235 35.2963L60.4447 34.5845C60.4591 34.1004 61.0846 33.9175 61.3575 34.3177L61.7587 34.906C61.8808 35.085 62.1042 35.165 62.3121 35.1042L62.9956 34.9044Z" fill="#FE3478"/>
</g>
<defs>
<filter id="filter0_f_263_2610" x="36.0714" y="9.78501" width="23.1429" height="23.1434" filterUnits="userSpaceOnUse" color-interpolation-filters="sRGB">
<feFlood flood-opacity="0" result="BackgroundImageFix"/>
<feBlend mode="normal" in="SourceGraphic" in2="BackgroundImageFix" result="shape"/>
<feGaussianBlur stdDeviation="1.71431" result="effect1_foregroundBlur_263_2610"/>
</filter>
<clipPath id="clip0_263_2610">
<rect width="64" height="64" rx="32" fill="white"/>
</clipPath>
</defs>
</svg>
