<svg width="24" height="28" viewBox="0 0 24 28" fill="none" xmlns="http://www.w3.org/2000/svg">
<g clip-path="url(#clip0_2713_1630)">
<path d="M17.7862 10.2218C19.5373 11.4643 21.6825 12.1953 23.9993 12.1953V7.77011C23.5608 7.77028 23.1235 7.72485 22.6945 7.63455V11.1178C20.3778 11.1178 18.2329 10.3869 16.4815 9.1445V18.1752C16.4815 22.6928 12.7919 26.3548 8.24088 26.3548C6.54279 26.3548 4.96441 25.8452 3.65332 24.9713C5.14976 26.49 7.23663 27.4322 9.54532 27.4322C14.0967 27.4322 17.7864 23.7702 17.7864 19.2524V10.2218H17.7862ZM19.3959 5.75731C18.501 4.78689 17.9134 3.53279 17.7862 2.14629V1.57715H16.5498C16.861 3.33932 17.9227 4.8448 19.3959 5.75731ZM6.53182 21.5046C6.03179 20.854 5.76152 20.0579 5.76279 19.2394C5.76279 17.1733 7.45038 15.498 9.53248 15.498C9.92044 15.4978 10.3061 15.5569 10.6759 15.6733V11.1491C10.2438 11.0904 9.80763 11.0653 9.37169 11.0745V14.5959C9.00168 14.4795 8.61581 14.4204 8.22766 14.4207C6.14566 14.4207 4.45816 16.0958 4.45816 18.1622C4.45816 19.6234 5.30163 20.8884 6.53182 21.5046Z" fill="#FF004F"/>
<path d="M16.4815 9.14441C18.233 10.3868 20.3777 11.1177 22.6945 11.1177V7.63446C21.4013 7.36101 20.2565 6.6903 19.3958 5.75731C17.9225 4.84471 16.861 3.33922 16.5497 1.57715H13.302V19.2522C13.2946 21.3128 11.6099 22.9812 9.53228 22.9812C8.30809 22.9812 7.2204 22.402 6.53162 21.5045C5.30162 20.8884 4.45806 19.6233 4.45806 18.1623C4.45806 16.0961 6.14556 14.4208 8.22756 14.4208C8.62647 14.4208 9.01093 14.4824 9.37159 14.596V11.0746C4.90047 11.1663 1.30469 14.7925 1.30469 19.2523C1.30469 21.4786 2.20009 23.4968 3.65341 24.9714C4.9645 25.8452 6.54278 26.355 8.24097 26.355C12.7921 26.355 16.4816 22.6927 16.4816 18.1752L16.4815 9.14441Z" fill="black"/>
<path d="M22.6945 7.63452V6.69287C21.5284 6.69455 20.3853 6.3704 19.3958 5.75746C20.2717 6.70917 21.4249 7.36547 22.6945 7.6347M16.5497 1.57721C16.52 1.40884 16.4973 1.23934 16.4814 1.06914V0.5H11.997V18.1752C11.9899 20.2356 10.3052 21.904 8.2275 21.904C7.63849 21.9049 7.05754 21.7682 6.53156 21.5049C7.22034 22.4021 8.30803 22.9812 9.53222 22.9812C11.6097 22.9812 13.2946 21.313 13.3019 19.2524V1.5773L16.5497 1.57721ZM9.37181 11.0747V10.0721C8.99708 10.0212 8.6193 9.9958 8.24109 9.9959C3.68953 9.9959 0 13.658 0 18.1752C0 21.0073 1.45003 23.5033 3.65353 24.9714C2.20022 23.4968 1.30481 21.4785 1.30481 19.2523C1.30481 14.7927 4.9005 11.1664 9.37181 11.0747Z" fill="#00F2EA"/>
</g>
<defs>
<clipPath id="clip0_2713_1630">
<rect width="24" height="27" fill="white" transform="translate(0 0.5)"/>
</clipPath>
</defs>
</svg>
