<svg width="193" height="168" viewBox="0 0 193 168" fill="none" xmlns="http://www.w3.org/2000/svg">
<path fill-rule="evenodd" clip-rule="evenodd" d="M0.000220222 97.5291C0.000220222 43.646 43.208 0 96.5 0C149.792 0 193 43.646 193 97.5291C193.05 121.322 184.428 144.318 168.746 162.212C168.581 162.395 168.422 162.574 168.266 162.752C167.973 163.083 167.686 163.409 167.367 163.736C163.941 167.266 162.458 167.266 159.398 167.266C156.338 167.266 154.4 167.266 151.384 163.696C138.345 148.252 118.212 141.533 96.5 141.533C74.7876 141.533 54.6834 148.224 41.6157 163.696C38.6001 167.266 36.6179 167.266 33.6022 167.266C30.5866 167.266 29.4327 167.266 25.633 163.736C25.3234 163.424 25.0326 163.093 24.7361 162.755C24.5782 162.575 24.4187 162.394 24.2538 162.212C8.57232 144.318 -0.0502396 121.322 0.000220222 97.5291ZM102.933 51.4665V25.7333H90.0667V51.4665H102.933ZM25.7335 102.933H51.4668V90.0665H25.7335V102.933ZM41.9133 51.0082L60.1075 69.2064L69.2067 60.1073L51.0084 41.9131L41.9133 51.0082ZM151.087 51.0082L141.992 41.9131L123.793 60.1073L132.892 69.2064L151.087 51.0082ZM141.533 102.933H167.266V90.0665H141.533V102.933ZM132.688 99.4094C132.688 99.4094 92.3243 82.9821 86.6541 93.2517C84.6389 96.9015 84.6389 101.727 86.6541 105.343C92.364 115.591 132.688 99.4094 132.688 99.4094Z" fill="#FE9801"/>
</svg>
