<svg width="144" height="64" viewBox="0 0 144 64" fill="none" xmlns="http://www.w3.org/2000/svg">
<g filter="url(#filter0_d_2574_713)">
<path fill-rule="evenodd" clip-rule="evenodd" d="M39.25 10.1792C39.25 4.55536 44.3527 0 50.6462 0C56.9397 0 62.0423 4.55536 62.0423 10.1792C62.0483 12.6624 61.03 15.0625 59.1781 16.9301C59.1586 16.9492 59.1399 16.9679 59.1214 16.9864C59.0869 17.0211 59.053 17.055 59.0152 17.0892C58.6107 17.4577 58.4355 17.4577 58.0741 17.4577C57.7127 17.4577 57.4839 17.4577 57.1277 17.085C55.5878 15.4731 53.2103 14.7719 50.6462 14.7719C48.0821 14.7719 45.7078 15.4702 44.1646 17.085C43.8085 17.4577 43.5744 17.4577 43.2183 17.4577C42.8621 17.4577 42.7259 17.4577 42.2771 17.0892C42.2406 17.0566 42.2062 17.0221 42.1712 16.9868C42.1526 16.9681 42.1337 16.9491 42.1143 16.9301C40.2623 15.0625 39.2441 12.6624 39.25 10.1792ZM51.4059 5.37159V2.68579H49.8864V5.37159H51.4059ZM42.289 10.7432H45.328V9.40027H42.289V10.7432ZM44.1998 5.32374L46.3484 7.2231L47.423 6.27342L45.2738 4.37449L44.1998 5.32374ZM56.0185 4.37449L53.8694 6.27342L54.944 7.2231L57.0926 5.32374L56.0185 4.37449ZM55.9644 10.7432H59.0034V9.40027H55.9644V10.7432ZM54.9196 10.375C54.9196 10.375 50.1528 8.66044 49.4832 9.73228C49.2452 10.1132 49.2452 10.6168 49.4832 10.9943C50.1575 12.0638 54.9196 10.375 54.9196 10.375Z" fill="#FE9801"/>
</g>
<g filter="url(#filter1_f_2574_713)">
<path d="M25.4734 45.2896V37.7025L18.3978 25.3984H21.1258L26.468 34.9461H26.8658L32.208 25.3984H34.9359L27.8603 37.7025V45.2896H25.4734ZM38.4639 45.5453C37.4599 45.5453 36.5317 45.3274 35.6792 44.8917C34.8456 44.456 34.1826 43.8119 33.6901 42.9594C33.2165 42.088 32.9797 41.0366 32.9797 39.8053V31.3941H35.2245V39.6348C35.2245 41.0177 35.5655 42.0217 36.2475 42.6469C36.9484 43.272 37.8862 43.5846 39.0607 43.5846C40.3868 43.5846 41.476 43.1489 42.3285 42.2775C43.181 41.406 43.6072 40.1084 43.6072 38.3845V31.3941H45.8521V45.2896H43.6641V42.931H43.2662C42.9631 43.5941 42.4422 44.2003 41.7034 44.7496C40.9646 45.2801 39.8847 45.5453 38.4639 45.5453ZM48.134 45.2896V31.3941H50.3221V33.1275H50.7199C50.9851 32.635 51.4208 32.1803 52.027 31.7635C52.6332 31.3468 53.4857 31.1384 54.5845 31.1384C55.6643 31.1384 56.5357 31.3752 57.1987 31.8488C57.8807 32.3224 58.3733 32.9002 58.6764 33.5822H59.0742C59.3962 32.9002 59.8793 32.3224 60.5234 31.8488C61.1864 31.3752 62.1052 31.1384 63.2798 31.1384C64.208 31.1384 65.0226 31.3278 65.7235 31.7067C66.4245 32.0856 66.9738 32.635 67.3717 33.3548C67.7884 34.0558 67.9968 34.8988 67.9968 35.8839V45.2896H65.7519V36.0828C65.7519 35.1545 65.4773 34.4252 64.9279 33.8947C64.3975 33.3454 63.6492 33.0707 62.683 33.0707C61.66 33.0707 60.817 33.4022 60.154 34.0652C59.5099 34.7283 59.1879 35.6849 59.1879 36.9353V45.2896H56.943V36.0828C56.943 35.1545 56.6683 34.4252 56.1189 33.8947C55.5885 33.3454 54.8402 33.0707 53.8741 33.0707C52.8511 33.0707 52.0081 33.4022 51.345 34.0652C50.7009 34.7283 50.3789 35.6849 50.3789 36.9353V45.2896H48.134ZM69.115 45.2896V41.9933H71.7293V28.6946H69.115V25.3984H77.2988C79.9699 25.3984 81.9969 26.0803 83.3798 27.4443C84.7817 28.7893 85.4826 30.7974 85.4826 33.4685V37.2194C85.4826 39.8905 84.7817 41.908 83.3798 43.272C81.9969 44.617 79.9699 45.2896 77.2988 45.2896H69.115ZM75.4802 41.8796H77.3557C78.8712 41.8796 79.9794 41.4818 80.6803 40.6862C81.3813 39.8905 81.7317 38.7728 81.7317 37.3331V33.3548C81.7317 31.8962 81.3813 30.7785 80.6803 30.0018C79.9794 29.2061 78.8712 28.8083 77.3557 28.8083H75.4802V41.8796ZM90.6832 45.6874C89.6792 45.6874 88.7793 45.5169 87.9837 45.1759C87.188 44.816 86.5534 44.3045 86.0798 43.6414C85.6252 42.9594 85.3978 42.1354 85.3978 41.1692C85.3978 40.2031 85.6252 39.398 86.0798 38.7539C86.5534 38.0908 87.1975 37.5983 88.0121 37.2762C88.8456 36.9353 89.7928 36.7648 90.8537 36.7648H94.7183V35.9691C94.7183 35.3061 94.5099 34.7662 94.0931 34.3494C93.6763 33.9137 93.0133 33.6958 92.104 33.6958C91.2136 33.6958 90.5506 33.9042 90.1149 34.321C89.6792 34.7188 89.395 35.2398 89.2624 35.8839L85.9661 34.7756C86.1935 34.0558 86.5534 33.4022 87.046 32.8149C87.5574 32.2087 88.2299 31.7257 89.0635 31.3657C89.916 30.9868 90.9484 30.7974 92.1608 30.7974C94.0173 30.7974 95.4855 31.2615 96.5653 32.1898C97.6451 33.118 98.185 34.4631 98.185 36.2249V41.4818C98.185 42.0501 98.4502 42.3343 98.9807 42.3343H100.117V45.2896H97.7304C97.0294 45.2896 96.4516 45.1191 95.997 44.7781C95.5423 44.4371 95.315 43.9824 95.315 43.4141V43.3857H94.7751C94.6993 43.613 94.5288 43.9161 94.2636 44.295C93.9984 44.6549 93.5816 44.977 93.0133 45.2611C92.445 45.5453 91.6683 45.6874 90.6832 45.6874ZM91.3083 42.7889C92.3124 42.7889 93.127 42.5143 93.7521 41.9649C94.3962 41.3966 94.7183 40.6483 94.7183 39.72V39.4359H91.1094C90.4464 39.4359 89.9254 39.5779 89.5466 39.8621C89.1677 40.1463 88.9782 40.5441 88.9782 41.0556C88.9782 41.5671 89.1771 41.9838 89.575 42.3059C89.9728 42.6279 90.5506 42.7889 91.3083 42.7889ZM106.062 45.6874C104.225 45.6874 102.719 45.2896 101.544 44.4939C100.37 43.6983 99.6594 42.5616 99.4131 41.084L102.709 40.2315C102.842 40.8945 103.06 41.4155 103.363 41.7944C103.685 42.1733 104.073 42.448 104.528 42.6184C105.002 42.77 105.513 42.8458 106.062 42.8458C106.896 42.8458 107.512 42.7037 107.91 42.4195C108.307 42.1164 108.506 41.747 108.506 41.3113C108.506 40.8756 108.317 40.5441 107.938 40.3168C107.559 40.0705 106.953 39.8716 106.119 39.72L105.324 39.5779C104.339 39.3885 103.439 39.1328 102.624 38.8107C101.81 38.4697 101.156 38.0056 100.663 37.4183C100.171 36.8311 99.9246 36.0733 99.9246 35.145C99.9246 33.7432 100.436 32.6729 101.459 31.934C102.482 31.1763 103.827 30.7974 105.494 30.7974C107.066 30.7974 108.374 31.1479 109.416 31.8488C110.457 32.5497 111.139 33.4685 111.461 34.6051L108.137 35.6281C107.985 34.9082 107.673 34.3968 107.199 34.0937C106.744 33.7905 106.176 33.639 105.494 33.639C104.812 33.639 104.291 33.7621 103.931 34.0084C103.571 34.2357 103.391 34.5578 103.391 34.9745C103.391 35.4292 103.581 35.7702 103.96 35.9975C104.339 36.2059 104.85 36.3669 105.494 36.4806L106.29 36.6227C107.351 36.8121 108.307 37.0679 109.16 37.3899C110.031 37.693 110.713 38.1382 111.206 38.7255C111.717 39.2938 111.973 40.0705 111.973 41.0556C111.973 42.5332 111.433 43.6793 110.353 44.4939C109.292 45.2896 107.862 45.6874 106.062 45.6874ZM112.695 45.2896V25.3984H116.276V32.9286H116.787C116.939 32.6255 117.175 32.3224 117.497 32.0193C117.819 31.7162 118.246 31.4699 118.776 31.2805C119.326 31.0721 120.017 30.9679 120.851 30.9679C121.949 30.9679 122.906 31.2236 123.721 31.7351C124.554 32.2277 125.198 32.9191 125.653 33.8095C126.107 34.6809 126.335 35.7039 126.335 36.8784V45.2896H122.754V37.1626C122.754 36.1017 122.489 35.3061 121.959 34.7756C121.447 34.2452 120.708 33.98 119.742 33.98C118.644 33.98 117.791 34.3494 117.185 35.0882C116.579 35.8081 116.276 36.8216 116.276 38.1287V45.2896H112.695Z" fill="white"/>
</g>
<path d="M26.2078 43.8193V36.2323L19.1322 23.9281H21.8601L27.2023 33.4759H27.6002L32.9424 23.9281H35.6703L28.5947 36.2323V43.8193H26.2078ZM39.1983 44.0751C38.1943 44.0751 37.266 43.8572 36.4136 43.4215C35.58 42.9858 34.917 42.3417 34.4244 41.4892C33.9508 40.6178 33.714 39.5664 33.714 38.3351V29.9239H35.9589V38.1646C35.9589 39.5475 36.2999 40.5515 36.9819 41.1766C37.6828 41.8018 38.6205 42.1144 39.7951 42.1144C41.1211 42.1144 42.2104 41.6787 43.0629 40.8072C43.9154 39.9358 44.3416 38.6382 44.3416 36.9143V29.9239H46.5865V43.8193H44.3984V41.4608H44.0006C43.6975 42.1238 43.1766 42.7301 42.4377 43.2794C41.6989 43.8099 40.6191 44.0751 39.1983 44.0751ZM48.8684 43.8193V29.9239H51.0564V31.6573H51.4543C51.7195 31.1648 52.1552 30.7101 52.7614 30.2933C53.3676 29.8766 54.2201 29.6682 55.3188 29.6682C56.3986 29.6682 57.2701 29.905 57.9331 30.3786C58.6151 30.8522 59.1076 31.43 59.4107 32.112H59.8086C60.1306 31.43 60.6137 30.8522 61.2578 30.3786C61.9208 29.905 62.8396 29.6682 64.0141 29.6682C64.9424 29.6682 65.757 29.8576 66.4579 30.2365C67.1588 30.6154 67.7082 31.1648 68.106 31.8846C68.5228 32.5856 68.7312 33.4286 68.7312 34.4136V43.8193H66.4863V34.6126C66.4863 33.6843 66.2116 32.955 65.6623 32.4245C65.1318 31.8752 64.3835 31.6005 63.4174 31.6005C62.3944 31.6005 61.5514 31.932 60.8884 32.595C60.2443 33.2581 59.9222 34.2147 59.9222 35.465V43.8193H57.6774V34.6126C57.6774 33.6843 57.4027 32.955 56.8533 32.4245C56.3229 31.8752 55.5746 31.6005 54.6084 31.6005C53.5855 31.6005 52.7425 31.932 52.0794 32.595C51.4353 33.2581 51.1133 34.2147 51.1133 35.465V43.8193H48.8684ZM69.8494 43.8193V40.5231H72.4637V27.2244H69.8494V23.9281H78.0332C80.7043 23.9281 82.7313 24.6101 84.1142 25.9741C85.5161 27.3191 86.217 29.3272 86.217 31.9983V35.7492C86.217 38.4203 85.5161 40.4378 84.1142 41.8018C82.7313 43.1468 80.7043 43.8193 78.0332 43.8193H69.8494ZM76.2146 40.4094H78.09C79.6056 40.4094 80.7138 40.0116 81.4147 39.2159C82.1156 38.4203 82.4661 37.3026 82.4661 35.8629V31.8846C82.4661 30.4259 82.1156 29.3082 81.4147 28.5315C80.7138 27.7359 79.6056 27.3381 78.09 27.3381H76.2146V40.4094ZM91.4176 44.2172C90.4135 44.2172 89.5137 44.0467 88.7181 43.7057C87.9224 43.3457 87.2878 42.8342 86.8142 42.1712C86.3595 41.4892 86.1322 40.6652 86.1322 39.699C86.1322 38.7329 86.3595 37.9278 86.8142 37.2837C87.2878 36.6206 87.9319 36.1281 88.7465 35.806C89.58 35.465 90.5272 35.2945 91.5881 35.2945H95.4526V34.4989C95.4526 33.8359 95.2443 33.296 94.8275 32.8792C94.4107 32.4435 93.7477 32.2256 92.8384 32.2256C91.948 32.2256 91.285 32.434 90.8493 32.8508C90.4135 33.2486 90.1294 33.7696 89.9968 34.4136L86.7005 33.3054C86.9278 32.5856 87.2878 31.932 87.7803 31.3447C88.2918 30.7385 88.9643 30.2554 89.7979 29.8955C90.6503 29.5166 91.6828 29.3272 92.8952 29.3272C94.7517 29.3272 96.2199 29.7913 97.2997 30.7196C98.3795 31.6478 98.9194 32.9928 98.9194 34.7546V40.0116C98.9194 40.5799 99.1846 40.8641 99.715 40.8641H100.852V43.8193H98.4647C97.7638 43.8193 97.186 43.6488 96.7314 43.3078C96.2767 42.9669 96.0494 42.5122 96.0494 41.9439V41.9155H95.5095C95.4337 42.1428 95.2632 42.4459 94.998 42.8248C94.7328 43.1847 94.316 43.5068 93.7477 43.7909C93.1794 44.0751 92.4027 44.2172 91.4176 44.2172ZM92.0427 41.3187C93.0468 41.3187 93.8613 41.044 94.4865 40.4947C95.1306 39.9263 95.4526 39.1781 95.4526 38.2498V37.9656H91.8438C91.1808 37.9656 90.6598 38.1077 90.2809 38.3919C89.9021 38.676 89.7126 39.0739 89.7126 39.5854C89.7126 40.0968 89.9115 40.5136 90.3093 40.8357C90.7072 41.1577 91.285 41.3187 92.0427 41.3187ZM106.797 44.2172C104.959 44.2172 103.453 43.8193 102.279 43.0237C101.104 42.228 100.394 41.0914 100.147 39.6138L103.444 38.7613C103.576 39.4243 103.794 39.9453 104.097 40.3242C104.419 40.703 104.808 40.9777 105.262 41.1482C105.736 41.2998 106.247 41.3756 106.797 41.3756C107.63 41.3756 108.246 41.2335 108.644 40.9493C109.042 40.6462 109.241 40.2768 109.241 39.8411C109.241 39.4054 109.051 39.0739 108.672 38.8465C108.293 38.6003 107.687 38.4014 106.854 38.2498L106.058 38.1077C105.073 37.9183 104.173 37.6625 103.359 37.3405C102.544 36.9995 101.89 36.5354 101.398 35.9481C100.905 35.3608 100.659 34.6031 100.659 33.6748C100.659 32.273 101.17 31.2026 102.193 30.4638C103.216 29.7061 104.561 29.3272 106.229 29.3272C107.801 29.3272 109.108 29.6776 110.15 30.3786C111.192 31.0795 111.874 31.9983 112.196 33.1349L108.871 34.1579C108.72 33.438 108.407 32.9265 107.933 32.6234C107.479 32.3203 106.911 32.1688 106.229 32.1688C105.547 32.1688 105.026 32.2919 104.666 32.5382C104.306 32.7655 104.126 33.0876 104.126 33.5043C104.126 33.959 104.315 34.3 104.694 34.5273C105.073 34.7357 105.584 34.8967 106.229 35.0104L107.024 35.1525C108.085 35.3419 109.042 35.5976 109.894 35.9197C110.766 36.2228 111.448 36.668 111.94 37.2552C112.452 37.8236 112.707 38.6003 112.707 39.5854C112.707 41.063 112.167 42.2091 111.088 43.0237C110.027 43.8193 108.597 44.2172 106.797 44.2172ZM113.43 43.8193V23.9281H117.01V31.4584H117.521C117.673 31.1553 117.91 30.8522 118.232 30.5491C118.554 30.246 118.98 29.9997 119.511 29.8103C120.06 29.6019 120.751 29.4977 121.585 29.4977C122.684 29.4977 123.64 29.7534 124.455 30.2649C125.288 30.7575 125.933 31.4489 126.387 32.3393C126.842 33.2107 127.069 34.2337 127.069 35.4082V43.8193H123.489V35.6924C123.489 34.6315 123.224 33.8359 122.693 33.3054C122.182 32.775 121.443 32.5098 120.477 32.5098C119.378 32.5098 118.525 32.8792 117.919 33.618C117.313 34.3379 117.01 35.3514 117.01 36.6585V43.8193H113.43Z" fill="#00674B"/>
<path fill-rule="evenodd" clip-rule="evenodd" d="M39.25 10.1792C39.25 4.55536 44.3527 0 50.6462 0C56.9397 0 62.0423 4.55536 62.0423 10.1792C62.0483 12.6624 61.03 15.0625 59.1781 16.9301C59.1586 16.9492 59.1399 16.9679 59.1214 16.9864C59.0869 17.0211 59.053 17.055 59.0152 17.0892C58.6107 17.4577 58.4355 17.4577 58.0741 17.4577C57.7127 17.4577 57.4839 17.4577 57.1277 17.085C55.5878 15.4731 53.2103 14.7719 50.6462 14.7719C48.0821 14.7719 45.7078 15.4702 44.1646 17.085C43.8085 17.4577 43.5744 17.4577 43.2183 17.4577C42.8621 17.4577 42.7259 17.4577 42.2771 17.0892C42.2406 17.0566 42.2062 17.0221 42.1712 16.9868C42.1526 16.9681 42.1337 16.9491 42.1143 16.9301C40.2623 15.0625 39.2441 12.6624 39.25 10.1792ZM51.4059 5.37159V2.68579H49.8864V5.37159H51.4059ZM42.289 10.7432H45.328V9.40027H42.289V10.7432ZM44.1998 5.32374L46.3484 7.2231L47.423 6.27342L45.2738 4.37449L44.1998 5.32374ZM56.0185 4.37449L53.8694 6.27342L54.944 7.2231L57.0926 5.32374L56.0185 4.37449ZM55.9644 10.7432H59.0034V9.40027H55.9644V10.7432ZM54.9196 10.375C54.9196 10.375 50.1528 8.66044 49.4832 9.73228C49.2452 10.1132 49.2452 10.6168 49.4832 10.9943C50.1575 12.0638 54.9196 10.375 54.9196 10.375Z" fill="#FE9801"/>
<defs>
<filter id="filter0_d_2574_713" x="36.3096" y="0" width="28.6728" height="23.3383" filterUnits="userSpaceOnUse" color-interpolation-filters="sRGB">
<feFlood flood-opacity="0" result="BackgroundImageFix"/>
<feColorMatrix in="SourceAlpha" type="matrix" values="0 0 0 0 0 0 0 0 0 0 0 0 0 0 0 0 0 0 127 0" result="hardAlpha"/>
<feOffset dy="2.94041"/>
<feGaussianBlur stdDeviation="1.47021"/>
<feComposite in2="hardAlpha" operator="out"/>
<feColorMatrix type="matrix" values="0 0 0 0 0 0 0 0 0 0 0 0 0 0 0 0 0 0 0.25 0"/>
<feBlend mode="normal" in2="BackgroundImageFix" result="effect1_dropShadow_2574_713"/>
<feBlend mode="normal" in="SourceGraphic" in2="effect1_dropShadow_2574_713" result="shape"/>
</filter>
<filter id="filter1_f_2574_713" x="0.357517" y="7.64707" width="145.551" height="55.8606" filterUnits="userSpaceOnUse" color-interpolation-filters="sRGB">
<feFlood flood-opacity="0" result="BackgroundImageFix"/>
<feBlend mode="normal" in="SourceGraphic" in2="BackgroundImageFix" result="shape"/>
<feGaussianBlur stdDeviation="8.82124" result="effect1_foregroundBlur_2574_713"/>
</filter>
</defs>
</svg>
